Coordinates
version=1
nRows=19
nColumns=24
inDegrees=yes

Units are S.I. units (second, meters, Newtons, ...)
Angles are in degrees.

endheader
time	pelvis_tilt	pelvis_list	pelvis_rotation	pelvis_tx	pelvis_ty	pelvis_tz	hip_flexion_r	hip_adduction_r	hip_rotation_r	knee_angle_r	ankle_angle_r	subtalar_angle_r	mtp_angle_r	hip_flexion_l	hip_adduction_l	hip_rotation_l	knee_angle_l	ankle_angle_l	subtalar_angle_l	mtp_angle_l	lumbar_extension	lumbar_bending	lumbar_rotation
      2.56000000	      2.24627302	      0.01219344	     -1.26951842	      0.03363762	      0.99888870	      0.00721967	      9.69291356	     -4.94129337	     -8.48878154	    -64.57118087	      9.34398653	      0.00000000	      0.00000000	     10.00487296	      1.46127813	     -4.02062066	    -19.59841984	     13.78706625	      0.00000000	      0.00000000	    -19.49306198	      0.29261264	     -1.58693389
      2.57000000	      2.17367791	     -0.20479588	     -1.40866197	      0.03279656	      0.99990036	      0.00637167	     10.98831495	     -4.78631506	     -8.69321064	    -65.13605049	     10.02324793	      0.00000000	      0.00000000	      9.39275188	      1.27848214	     -4.25728443	    -19.16070531	     13.97806308	      0.00000000	      0.00000000	    -19.48652938	      0.56523989	     -1.59582046
      2.58000000	      2.23161665	     -0.41667855	     -1.50104320	      0.03171269	      1.00104656	      0.00539952	     12.12354664	     -4.69269195	     -9.02683975	    -65.49634902	     10.36374046	      0.00000000	      0.00000000	      8.74632217	      1.12023091	     -4.36477562	    -18.93169710	     14.08600218	      0.00000000	      0.00000000	    -19.66896204	      0.85850156	     -1.65203970
      2.59000000	      1.95856403	     -0.60573419	     -1.81921937	      0.03078984	      1.00166015	      0.00489083	     13.58494283	     -4.50537113	     -9.11892484	    -65.62923580	     11.34047006	      0.00000000	      0.00000000	      8.23482099	      0.94689484	     -4.87795846	    -18.25894044	     14.27049895	      0.00000000	      0.00000000	    -19.42722584	      1.05733610	     -1.50271988
      2.60000000	      1.87888323	     -0.84291080	     -1.97294503	      0.02968835	      1.00254595	      0.00412977	     14.75249635	     -4.34519364	     -9.48449409	    -65.49606094	     11.83477718	      0.00000000	      0.00000000	      7.60093685	      0.76596951	     -5.04146215	    -17.73384817	     14.45191067	      0.00000000	      0.00000000	    -19.44892620	      1.36036672	     -1.50181233
      2.61000000	      1.84749743	     -1.05280427	     -2.16554320	      0.02836957	      1.00335263	      0.00338152	     15.88053579	     -4.24124539	     -9.88635217	    -65.25503278	     12.23153365	      0.00000000	      0.00000000	      6.98241461	      0.61782048	     -5.14439021	    -17.34213210	     14.59246248	      0.00000000	      0.00000000	    -19.56238396	      1.62955903	     -1.45891215
      2.62000000	      1.67480938	     -1.30311624	     -2.40581476	      0.02719918	      1.00399316	      0.00297893	     17.01730383	     -3.93721225	    -10.09711232	    -64.62699415	     13.00399945	      0.00000000	      0.00000000	      6.36159491	      0.40607665	     -5.44736208	    -16.63294360	     14.73508872	      0.00000000	      0.00000000	    -19.48591882	      1.91625074	     -1.38987645
      2.63000000	      1.60848612	     -1.45595447	     -2.65109760	      0.02569419	      1.00460302	      0.00243409	     18.07718604	     -3.85639028	    -10.50135011	    -63.94817802	     13.33747350	      0.00000000	      0.00000000	      5.78656636	      0.32145818	     -5.49567118	    -16.24397785	     14.88897558	      0.00000000	      0.00000000	    -19.58822686	      2.09727201	     -1.29597172
      2.64000000	      1.44424417	     -1.66794020	     -2.87761181	      0.02442398	      1.00500917	      0.00213228	     19.12245017	     -3.60465235	    -10.81413173	    -63.00251857	     13.85887169	      0.00000000	      0.00000000	      5.16544442	      0.16386548	     -5.62119303	    -15.55329701	     15.09554121	      0.00000000	      0.00000000	    -19.52684099	      2.33484911	     -1.28572039
      2.65000000	      1.32510884	     -1.92535791	     -3.14083614	      0.02290410	      1.00537783	      0.00202983	     20.10114204	     -3.24634848	    -11.06286605	    -61.91824062	     14.43183267	      0.00000000	      0.00000000	      4.51562556	     -0.06670550	     -5.87061150	    -14.87383357	     15.17622512	      0.00000000	      0.00000000	    -19.57415152	      2.60343015	     -1.19440232
      2.66000000	      1.30194618	     -2.14057308	     -3.41193198	      0.02139952	      1.00580274	      0.00194346	     20.89254141	     -2.94552240	    -11.35948717	    -60.60901222	     14.72686502	      0.00000000	      0.00000000	      3.74658312	     -0.23410326	     -6.07254935	    -14.17869305	     15.27370394	      0.00000000	      0.00000000	    -19.73157770	      2.81021213	     -1.09248371
      2.67000000	      1.12793989	     -2.24636613	     -3.61667939	      0.01984047	      1.00578418	      0.00175709	     21.82229465	     -2.79408234	    -11.73321176	    -59.21726060	     14.88053822	      0.00000000	      0.00000000	      3.19375684	     -0.27845970	     -6.09901808	    -13.56358111	     15.50458574	      0.00000000	      0.00000000	    -19.70153802	      2.93278509	     -1.10371332
      2.68000000	      1.06521718	     -2.49234294	     -3.85527884	      0.01833040	      1.00595351	      0.00178941	     22.48492144	     -2.42503299	    -12.07774007	    -57.49919834	     14.85339067	      0.00000000	      0.00000000	      2.49520163	     -0.48877098	     -6.31253902	    -12.93496798	     15.52727250	      0.00000000	      0.00000000	    -19.81778860	      3.18078349	     -1.01564493
      2.69000000	      0.85346909	     -2.49545889	     -4.03919193	      0.01676007	      1.00560853	      0.00174688	     23.32270832	     -2.35404431	    -12.49279552	    -55.78888830	     14.77630798	      0.00000000	      0.00000000	      1.98563346	     -0.43361974	     -6.33208074	    -12.30758545	     15.82252234	      0.00000000	      0.00000000	    -19.73575127	      3.17597555	     -1.07364662
      2.70000000	      0.63812622	     -2.59310377	     -4.19819172	      0.01520146	      1.00520779	      0.00180067	     24.04795653	     -2.14796610	    -12.93108292	    -53.83718131	     14.48462840	      0.00000000	      0.00000000	      1.46795102	     -0.49464347	     -6.44507602	    -11.65721553	     15.97443522	      0.00000000	      0.00000000	    -19.65945674	      3.27623527	     -1.08629662
      2.71000000	      0.48037255	     -2.44180156	     -4.41759188	      0.01359040	      1.00466218	      0.00191319	     24.71089820	     -2.17077950	    -13.22400340	    -51.84082969	     14.32923571	      0.00000000	      0.00000000	      1.07851899	     -0.29106746	     -6.47063537	    -11.41728839	     16.15503689	      0.00000000	      0.00000000	    -19.63049292	      3.07536620	     -1.13232160
      2.72000000	      0.20891031	     -2.71855856	     -4.46552610	      0.01222126	      1.00411094	      0.00206356	     25.22310852	     -1.75240401	    -13.85962600	    -49.40728416	     13.56594751	      0.00000000	      0.00000000	      0.49960252	     -0.55623508	     -6.69763821	    -10.50793031	     16.26457794	      0.00000000	      0.00000000	    -19.48469797	      3.39827088	     -1.15407805
      2.73000000	      0.20080670	     -2.82955375	     -4.53963195	      0.01083396	      1.00382052	      0.00228978	     25.37646662	     -1.47108949	    -14.34911486	    -46.81562838	     13.03957223	      0.00000000	      0.00000000	     -0.20197804	     -0.63533838	     -6.85042967	     -9.96403856	     16.42804646	      0.00000000	      0.00000000	    -19.65274855	      3.49294040	     -1.20581399
      2.74000000	     -0.11077536	     -2.78606857	     -4.62264394	      0.00945811	      1.00282483	      0.00254798	     25.87730678	     -1.32742669	    -14.83116513	    -44.26888879	     12.57765316	      0.00000000	      0.00000000	     -0.53585182	     -0.57097828	     -6.96753764	     -9.46147264	     16.60027040	      0.00000000	      0.00000000	    -19.43329349	      3.44220129	     -1.27072219
